Coordinates
version=1
nRows=5
nColumns=40
inDegrees=yes

Units are S.I. units (second, meters, Newtons, ...)
If the header above contains a line with 'inDegrees', this indicates whether rotational values are in degrees (yes) or radians (no).

endheader
time	pelvis_tilt	pelvis_list	pelvis_rotation	pelvis_tx	pelvis_ty	pelvis_tz	hip_flexion_r	hip_adduction_r	hip_rotation_r	knee_angle_r	knee_angle_r_beta	ankle_angle_r	subtalar_angle_r	mtp_angle_r	hip_flexion_l	hip_adduction_l	hip_rotation_l	knee_angle_l	knee_angle_l_beta	ankle_angle_l	subtalar_angle_l	mtp_angle_l	lumbar_extension	lumbar_bending	lumbar_rotation	arm_flex_r	arm_add_r	arm_rot_r	elbow_flex_r	pro_sup_r	wrist_flex_r	wrist_dev_r	arm_flex_l	arm_add_l	arm_rot_l	elbow_flex_l	pro_sup_l	wrist_flex_l	wrist_dev_l
      4.47500000	    -28.76975832	     -1.66379782	     -0.97004578	     -0.34171608	      0.73823276	     -0.96818424	     31.36610578	     -4.53977264	     11.80027102	     90.68264635	      1.58271075	    -20.27093261	      0.00000000	      0.00000000	     80.15590921	     -4.39049449	     -3.39252848	     84.99837595	      1.48350152	     21.00968093	      0.00000000	      0.00000000	    -14.08828544	    -12.83060177	      8.84664703	     79.27962593	     -4.93121477	     20.47880160	     77.99901274	     77.62889266	      0.00000000	      0.00000000	     88.05407997	    -15.41653377	     37.55894606	     75.37286278	     73.49323780	      0.00000000	      0.00000000
      4.48000000	    -28.78374476	     -1.70955824	     -1.15879199	     -0.34153663	      0.73926262	     -0.96791233	     31.37088267	     -4.30031803	     11.93147805	     90.74396884	      1.58378103	    -19.78654066	      0.00000000	      0.00000000	     80.10468796	     -4.51808661	     -3.23827303	     84.91934023	      1.48212209	     20.68027320	      0.00000000	      0.00000000	    -13.87732532	    -12.78655438	      8.98371535	     79.23658138	     -4.90572641	     20.92706798	     78.02247092	     73.08956230	      0.00000000	      0.00000000	     87.94658791	    -15.65674230	     37.91682994	     75.73915483	     69.78084760	      0.00000000	      0.00000000
      4.48500000	    -28.75398513	     -1.76149715	     -1.11508850	     -0.34131657	      0.74042111	     -0.96805224	     31.33245280	     -4.35486632	     11.68736604	     90.63150264	      1.58181813	    -20.09899066	      0.00000000	      0.00000000	     79.89033359	     -4.47158102	     -3.22819405	     84.60544575	      1.47664359	     20.78805906	      0.00000000	      0.00000000	    -13.74789594	    -12.73994428	      9.04997427	     79.10175706	     -4.96762960	     20.91858570	     78.15872230	     71.65536721	      0.00000000	      0.00000000	     87.97683267	    -15.54829754	     38.21739667	     75.67006043	     68.57100576	      0.00000000	      0.00000000
      4.49000000	    -28.73440259	     -1.81415226	     -1.18223264	     -0.34096735	      0.74139611	     -0.96800071	     31.26378499	     -4.24742577	     11.64175641	     90.62534053	      1.58171058	    -19.92555670	      0.00000000	      0.00000000	     79.83872525	     -4.46799640	     -3.04889182	     84.53751629	      1.47545800	     20.51933559	      0.00000000	      0.00000000	    -13.58234218	    -12.66971345	      9.12682977	     79.01457135	     -4.96654668	     20.99799829	     78.23821503	     69.53629789	      0.00000000	      0.00000000	     87.86421299	    -15.65241237	     38.29005333	     75.78956222	     66.79199749	      0.00000000	      0.00000000
      4.49500000	    -28.76478836	     -1.87497312	     -1.11124402	     -0.34098372	      0.74262375	     -0.96817489	     31.32007939	     -4.21249088	     11.46733648	     90.58625043	      1.58102833	    -20.19589771	      0.00000000	      0.00000000	     79.63602706	     -4.30303179	     -2.92134425	     84.17570610	      1.46914322	     20.83159014	      0.00000000	      0.00000000	    -13.42596919	    -12.57306583	      9.12525710	     78.88091269	     -4.89323465	     20.34244559	     78.10144909	     80.13155502	      0.00000000	      0.00000000	     87.76020298	    -15.50057677	     37.42738551	     75.36466225	     75.86167057	      0.00000000	      0.00000000
